<?xml version="1.0" encoding="UTF-8" standalone="no"?>
<svg
   xmlns:dc="http://purl.org/dc/elements/1.1/"
   xmlns:cc="http://creativecommons.org/ns#"
   xmlns:rdf="http://www.w3.org/1999/02/22-rdf-syntax-ns#"
   xmlns:svg="http://www.w3.org/2000/svg"
   xmlns="http://www.w3.org/2000/svg"
   width="1024"
   height="1024"
   viewBox="0 0 270.93333 270.93334"
   version="1.1"
   id="svg8">
  <defs
     id="defs2">
    <clipPath
       clipPathUnits="userSpaceOnUse"
       id="clipPath1338">
      <rect
         style="fill:#000000;fill-opacity:0.375;stroke:none;stroke-width:1.05833;stroke-linecap:round;stroke-miterlimit:4;stroke-dasharray:none;stroke-opacity:1;paint-order:normal;stop-color:#000000"
         id="rect1340"
         width="84.666664"
         height="67.73333"
         x="186.26666"
         y="101.6" />
    </clipPath>
  </defs>
  <metadata
     id="metadata5">
    <rdf:RDF>
      <cc:Work
         rdf:about="">
        <dc:format>image/svg+xml</dc:format>
        <dc:type
           rdf:resource="http://purl.org/dc/dcmitype/StillImage" />
        <dc:title></dc:title>
      </cc:Work>
    </rdf:RDF>
  </metadata>
  <g
     id="layer1">
    <rect
       style="fill:#d8efff;fill-opacity:1;stroke:none;stroke-width:3.28418;stroke-linecap:round;stroke-linejoin:round;stroke-miterlimit:10;stroke-dasharray:none;stroke-opacity:1;paint-order:stroke fill markers;stop-color:#000000"
       id="rect1188"
       width="338.66669"
       height="220.13335"
       x="4.6273497e-05"
       y="-7.1728514e-06" />
    <g
       id="g1186"
       transform="matrix(0.57098176,0,0,0.57098176,277.51912,-38.71974)">
      <g
         id="g1090"
         transform="translate(-1994.5463,-567.07602)">
        <path
           id="path970"
           d="m 1838.789,683.75516 c 0,1.51405 -4.9038,2.74138 -10.953,2.74138 -6.049,0 -10.9528,-1.22733 -10.9528,-2.74138 0,-1.51398 4.9038,-2.74135 10.9528,-2.74135 6.0492,0 10.953,1.22737 10.953,2.74135 z"
           style="color:#000000;display:inline;overflow:visible;visibility:visible;fill:none;stroke:#6ac1ff;stroke-width:1.20426;stroke-linecap:round;stroke-linejoin:round;stroke-miterlimit:4;stroke-dashoffset:0;stroke-opacity:1;marker:none;enable-background:accumulate" />
        <path
           style="color:#000000;display:inline;overflow:visible;visibility:visible;fill:none;stroke:#4a9ce6;stroke-width:1.20426;stroke-linecap:round;stroke-linejoin:round;stroke-miterlimit:4;stroke-dasharray:none;stroke-dashoffset:0;stroke-opacity:1;marker:none;enable-background:accumulate"
           d="m 1827.8553,679.79797 c -7.9551,0 -14.4055,1.89219 -14.4055,4.22104 0,2.32881 6.4504,4.20935 14.4055,4.20935 7.9551,0 14.4053,-1.88054 14.4053,-4.20935 0,-2.32885 -6.4502,-4.22104 -14.4053,-4.22104 z"
           id="path972" />
        <g
           id="g998"
           transform="matrix(0.48170278,0,0,0.48170278,1228.1156,205.02763)">
          <path
             d="m 1227.6825,990.32006 c 0,-4.10674 4.9224,-6.13008 9.5679,-6.05721 4.6456,0.0732 10.7334,2.74159 10.7334,6.48293 0,3.74044 -6.3572,3.56613 -10.7334,3.56613 -2.2043,0 -6.2112,0.27933 -7.9355,-0.69884 -1.7003,-0.96573 -1.7055,-3.29301 -1.6324,-3.29301 z"
             id="path974"
             style="fill:#000000;fill-opacity:1;fill-rule:nonzero;stroke:#000000;stroke-width:2.20433;stroke-linecap:butt;stroke-linejoin:round;stroke-miterlimit:4;stroke-dasharray:none;stroke-opacity:1" />
          <path
             d="m 1227.6825,990.32006 c 0,-4.10674 4.9224,-6.13008 9.5679,-6.05721 4.6456,0.0732 10.7334,2.74159 10.7334,6.48293 0,3.74044 -6.3572,3.56613 -10.7334,3.56613 -2.2043,0 -6.2112,0.27933 -7.9355,-0.69884 -1.7003,-0.96573 -1.7055,-3.29301 -1.6324,-3.29301 z"
             id="path976"
             style="fill:#a67e33;fill-opacity:1;fill-rule:nonzero;stroke:#000000;stroke-width:1.76346;stroke-linecap:butt;stroke-linejoin:round;stroke-miterlimit:4;stroke-dasharray:none;stroke-opacity:1" />
          <path
             d="m 1262.264,973.83207 c 0,10.16936 -8.2434,18.41259 -18.4125,18.41259 -10.1695,0 -18.4129,-8.24323 -18.4129,-18.41259 0,-10.1694 8.2434,-18.41293 18.4129,-18.41293 10.1691,0 18.4125,8.24353 18.4125,18.41293 z"
             id="path978"
             style="fill:#000000;fill-opacity:1;fill-rule:evenodd;stroke:#000000;stroke-width:2.9503;stroke-linecap:butt;stroke-linejoin:round;stroke-miterlimit:4;stroke-dasharray:none;stroke-opacity:1" />
          <path
             d="m 1262.264,973.83207 c 0,10.16936 -8.2434,18.41259 -18.4125,18.41259 -10.1695,0 -18.4129,-8.24323 -18.4129,-18.41259 0,-10.1694 8.2434,-18.41293 18.4129,-18.41293 10.1691,0 18.4125,8.24353 18.4125,18.41293 z"
             id="path980"
             style="fill:#ffa500;fill-opacity:1;fill-rule:evenodd;stroke:#000000;stroke-width:1.31125;stroke-linecap:butt;stroke-linejoin:miter;stroke-miterlimit:4;stroke-dasharray:none;stroke-opacity:1" />
          <path
             style="opacity:0.3;fill:#d40000;fill-opacity:1;fill-rule:evenodd;stroke:none"
             id="path982"
             d="m 1259.611,965.67966 c 0.1067,0.81406 0.2052,1.63468 0.2052,2.47993 0,10.49872 -8.5125,19.03322 -19.0126,19.03322 -4.8301,0 -9.1847,-1.86446 -12.5391,-4.83508 3.0222,5.51853 8.8526,9.28056 15.5906,9.28056 9.8386,0 17.7845,-7.96528 17.7845,-17.80359 0,-2.95063 -0.7602,-5.70596 -2.0286,-8.15504 z" />
          <path
             d="m 1243.0216,990.32006 c 0,-4.10674 4.9225,-6.13008 9.5682,-6.05721 4.6454,0.0732 10.7335,2.74159 10.7335,6.48293 0,3.74044 -6.3573,3.56613 -10.7335,3.56613 -2.2042,0 -6.2112,0.27933 -7.9371,-0.69884 -1.7003,-0.96573 -1.7039,-3.29301 -1.6311,-3.29301 z"
             id="path984"
             style="fill:#000000;fill-opacity:1;fill-rule:nonzero;stroke:#000000;stroke-width:2.20433;stroke-linecap:butt;stroke-linejoin:round;stroke-miterlimit:4;stroke-dasharray:none;stroke-opacity:1" />
          <path
             d="m 1243.0216,990.32006 c 0,-4.10674 4.9215,-6.13008 9.5682,-6.05721 4.6454,0.0732 10.7335,2.74159 10.7335,6.48293 0,3.74044 -6.3573,3.56613 -10.7335,3.56613 -2.2042,0 -6.2112,0.27933 -7.9371,-0.69884 -1.7003,-0.96573 -1.7039,-3.29301 -1.6311,-3.29301 z"
             id="path986"
             style="fill:#a67e33;fill-opacity:1;fill-rule:nonzero;stroke:#000000;stroke-width:1.76346;stroke-linecap:butt;stroke-linejoin:round;stroke-miterlimit:4;stroke-dasharray:none;stroke-opacity:1" />
          <path
             style="color:#000000;display:inline;overflow:visible;visibility:visible;fill:#1a1a1a;fill-opacity:1;fill-rule:nonzero;stroke:none;stroke-width:4;marker:none;enable-background:accumulate"
             d="m 1247.8295,971.31102 c 0,3.19142 -1.3204,5.77859 -2.9492,5.77859 -1.6288,0 -2.9492,-2.58717 -2.9492,-5.77859 0,-3.19142 1.3204,-5.77858 2.9492,-5.77858 1.6288,0 2.9492,2.58716 2.9492,5.77858 z"
             id="path988" />
          <path
             id="path990"
             d="m 1244.8883,965.53107 c -1.6288,0 -2.9479,2.5831 -2.9479,5.77452 0,2.7504 0.9879,5.06094 2.3012,5.6474 -0.6631,-1.06351 -1.084,-2.67727 -1.084,-4.48523 0,-3.19142 1.319,-5.77452 2.9478,-5.77452 0.2251,0 0.436,0.0518 0.6467,0.14527 -0.5076,-0.81052 -1.1575,-1.30744 -1.8638,-1.30744 z"
             style="color:#000000;display:inline;overflow:visible;visibility:visible;fill:#000000;fill-opacity:1;fill-rule:nonzero;stroke:none;stroke-width:4;marker:none;enable-background:accumulate" />
          <path
             style="color:#000000;display:inline;overflow:visible;visibility:visible;fill:#1a1a1a;fill-opacity:1;fill-rule:nonzero;stroke:none;stroke-width:4;marker:none;enable-background:accumulate"
             d="m 1240.0892,971.30643 c 0,3.19142 -1.3204,5.77859 -2.9493,5.77859 -1.6288,0 -2.9492,-2.58717 -2.9492,-5.77859 0,-3.19143 1.3204,-5.77859 2.9492,-5.77859 1.6289,0 2.9493,2.58716 2.9493,5.77859 z"
             id="path992" />
          <path
             id="path994"
             d="m 1237.1479,965.52647 c -1.6288,0 -2.9479,2.58311 -2.9479,5.77453 0,2.75039 0.988,5.06094 2.3013,5.64741 -0.6632,-1.06353 -1.0841,-2.67729 -1.0841,-4.48524 0,-3.19143 1.319,-5.77453 2.9479,-5.77453 0.2251,0 0.436,0.0518 0.6466,0.14528 -0.5076,-0.81052 -1.1574,-1.30745 -1.8638,-1.30745 z"
             style="color:#000000;display:inline;overflow:visible;visibility:visible;fill:#000000;fill-opacity:1;fill-rule:nonzero;stroke:none;stroke-width:4;marker:none;enable-background:accumulate" />
          <path
             style="opacity:0.3;fill:#000000;fill-opacity:1;stroke:none"
             d="m 1259.8795,986.97487 c -0.1667,3.16667 -3.5833,6.20833 -10.625,6.875 h 10 l 3.75,-1.625 -0.125,-3 z"
             id="path996" />
        </g>
        <path
           id="path1000"
           d="m 1792.8057,705.09237 c 0,2.70431 -8.7589,4.89651 -19.5636,4.89651 -10.8045,0 -19.5633,-2.1922 -19.5633,-4.89651 0,-2.70419 8.7588,-4.89645 19.5633,-4.89645 10.8047,0 19.5636,2.19226 19.5636,4.89645 z"
           style="color:#000000;display:inline;overflow:visible;visibility:visible;fill:none;stroke:#6ac1ff;stroke-width:2.15098;stroke-linecap:round;stroke-linejoin:round;stroke-miterlimit:4;stroke-dashoffset:0;stroke-opacity:1;marker:none;enable-background:accumulate" />
        <path
           style="color:#000000;display:inline;overflow:visible;visibility:visible;fill:none;stroke:#4a9ce6;stroke-width:2.15098;stroke-linecap:round;stroke-linejoin:round;stroke-miterlimit:4;stroke-dasharray:none;stroke-dashoffset:0;stroke-opacity:1;marker:none;enable-background:accumulate"
           d="m 1773.2765,698.02424 c -14.2091,0 -25.7303,3.37973 -25.7303,7.53939 0,4.15961 11.5212,7.51853 25.7303,7.51853 14.209,0 25.7299,-3.35892 25.7299,-7.51853 0,-4.15966 -11.5209,-7.53939 -25.7299,-7.53939 z"
           id="path1002" />
        <g
           id="g1028"
           transform="matrix(0.86039199,0,0,0.86039199,702.05313,-149.98538)">
          <path
             d="m 1227.6825,990.32006 c 0,-4.10674 4.9224,-6.13008 9.5679,-6.05721 4.6456,0.0732 10.7334,2.74159 10.7334,6.48293 0,3.74044 -6.3572,3.56613 -10.7334,3.56613 -2.2043,0 -6.2112,0.27933 -7.9355,-0.69884 -1.7003,-0.96573 -1.7055,-3.29301 -1.6324,-3.29301 z"
             id="path1004"
             style="fill:#000000;fill-opacity:1;fill-rule:nonzero;stroke:#000000;stroke-width:2.20433;stroke-linecap:butt;stroke-linejoin:round;stroke-miterlimit:4;stroke-dasharray:none;stroke-opacity:1" />
          <path
             d="m 1227.6825,990.32006 c 0,-4.10674 4.9224,-6.13008 9.5679,-6.05721 4.6456,0.0732 10.7334,2.74159 10.7334,6.48293 0,3.74044 -6.3572,3.56613 -10.7334,3.56613 -2.2043,0 -6.2112,0.27933 -7.9355,-0.69884 -1.7003,-0.96573 -1.7055,-3.29301 -1.6324,-3.29301 z"
             id="path1006"
             style="fill:#a67e33;fill-opacity:1;fill-rule:nonzero;stroke:#000000;stroke-width:1.76347;stroke-linecap:butt;stroke-linejoin:round;stroke-miterlimit:4;stroke-dasharray:none;stroke-opacity:1" />
          <path
             d="m 1262.264,973.83207 c 0,10.16936 -8.2434,18.41259 -18.4125,18.41259 -10.1695,0 -18.4129,-8.24323 -18.4129,-18.41259 0,-10.1694 8.2434,-18.41293 18.4129,-18.41293 10.1691,0 18.4125,8.24353 18.4125,18.41293 z"
             id="path1008"
             style="fill:#000000;fill-opacity:1;fill-rule:evenodd;stroke:#000000;stroke-width:2.9503;stroke-linecap:butt;stroke-linejoin:round;stroke-miterlimit:4;stroke-dasharray:none;stroke-opacity:1" />
          <path
             d="m 1262.264,973.83207 c 0,10.16936 -8.2434,18.41259 -18.4125,18.41259 -10.1695,0 -18.4129,-8.24323 -18.4129,-18.41259 0,-10.1694 8.2434,-18.41293 18.4129,-18.41293 10.1691,0 18.4125,8.24353 18.4125,18.41293 z"
             id="path1010"
             style="fill:#ffa500;fill-opacity:1;fill-rule:evenodd;stroke:#000000;stroke-width:1.31125;stroke-linecap:butt;stroke-linejoin:miter;stroke-miterlimit:4;stroke-dasharray:none;stroke-opacity:1" />
          <path
             style="opacity:0.3;fill:#d40000;fill-opacity:1;fill-rule:evenodd;stroke:none"
             id="path1012"
             d="m 1259.611,965.67966 c 0.1067,0.81406 0.2052,1.63468 0.2052,2.47993 0,10.49872 -8.5125,19.03322 -19.0126,19.03322 -4.8301,0 -9.1847,-1.86446 -12.5391,-4.83508 3.0222,5.51853 8.8526,9.28056 15.5906,9.28056 9.8386,0 17.7845,-7.96528 17.7845,-17.80359 0,-2.95063 -0.7602,-5.70596 -2.0286,-8.15504 z" />
          <path
             d="m 1243.0216,990.32006 c 0,-4.10674 4.9225,-6.13008 9.5682,-6.05721 4.6454,0.0732 10.7335,2.74159 10.7335,6.48293 0,3.74044 -6.3573,3.56613 -10.7335,3.56613 -2.2042,0 -6.2112,0.27933 -7.9371,-0.69884 -1.7003,-0.96573 -1.7039,-3.29301 -1.6311,-3.29301 z"
             id="path1014"
             style="fill:#000000;fill-opacity:1;fill-rule:nonzero;stroke:#000000;stroke-width:2.20433;stroke-linecap:butt;stroke-linejoin:round;stroke-miterlimit:4;stroke-dasharray:none;stroke-opacity:1" />
          <path
             d="m 1243.0216,990.32006 c 0,-4.10674 4.9215,-6.13008 9.5682,-6.05721 4.6454,0.0732 10.7335,2.74159 10.7335,6.48293 0,3.74044 -6.3573,3.56613 -10.7335,3.56613 -2.2042,0 -6.2112,0.27933 -7.9371,-0.69884 -1.7003,-0.96573 -1.7039,-3.29301 -1.6311,-3.29301 z"
             id="path1016"
             style="fill:#a67e33;fill-opacity:1;fill-rule:nonzero;stroke:#000000;stroke-width:1.76346;stroke-linecap:butt;stroke-linejoin:round;stroke-miterlimit:4;stroke-dasharray:none;stroke-opacity:1" />
          <path
             style="color:#000000;display:inline;overflow:visible;visibility:visible;fill:#1a1a1a;fill-opacity:1;fill-rule:nonzero;stroke:none;stroke-width:4;marker:none;enable-background:accumulate"
             d="m 1253.5811,973.64628 c 0,3.19142 -1.3204,5.77859 -2.9492,5.77859 -1.6288,0 -2.9492,-2.58717 -2.9492,-5.77859 0,-3.19142 1.3204,-5.77858 2.9492,-5.77858 1.6288,0 2.9492,2.58716 2.9492,5.77858 z"
             id="path1018" />
          <path
             id="path1020"
             d="m 1250.6399,967.86633 c -1.6288,0 -2.9479,2.5831 -2.9479,5.77452 0,2.7504 0.9879,5.06094 2.3012,5.6474 -0.6631,-1.06351 -1.084,-2.67727 -1.084,-4.48523 0,-3.19142 1.319,-5.77452 2.9478,-5.77452 0.2251,0 0.436,0.0518 0.6467,0.14527 -0.5076,-0.81052 -1.1575,-1.30744 -1.8638,-1.30744 z"
             style="color:#000000;display:inline;overflow:visible;visibility:visible;fill:#000000;fill-opacity:1;fill-rule:nonzero;stroke:none;stroke-width:4;marker:none;enable-background:accumulate" />
          <path
             style="color:#000000;display:inline;overflow:visible;visibility:visible;fill:#1a1a1a;fill-opacity:1;fill-rule:nonzero;stroke:none;stroke-width:4;marker:none;enable-background:accumulate"
             d="m 1245.8408,973.64169 c 0,3.19142 -1.3204,5.77859 -2.9493,5.77859 -1.6288,0 -2.9492,-2.58717 -2.9492,-5.77859 0,-3.19143 1.3204,-5.77859 2.9492,-5.77859 1.6289,0 2.9493,2.58716 2.9493,5.77859 z"
             id="path1022" />
          <path
             id="path1024"
             d="m 1242.8995,967.86173 c -1.6288,0 -2.9479,2.58311 -2.9479,5.77453 0,2.75039 0.988,5.06094 2.3013,5.64741 -0.6632,-1.06353 -1.0841,-2.67729 -1.0841,-4.48524 0,-3.19143 1.319,-5.77453 2.9479,-5.77453 0.2251,0 0.436,0.0518 0.6466,0.14528 -0.5076,-0.81052 -1.1574,-1.30745 -1.8638,-1.30745 z"
             style="color:#000000;display:inline;overflow:visible;visibility:visible;fill:#000000;fill-opacity:1;fill-rule:nonzero;stroke:none;stroke-width:4;marker:none;enable-background:accumulate" />
          <path
             style="opacity:0.3;fill:#000000;fill-opacity:1;stroke:none"
             d="m 1259.8795,986.97487 c -0.1667,3.16667 -3.5833,6.20833 -10.625,6.875 h 10 l 3.75,-1.625 -0.125,-3 z"
             id="path1026" />
        </g>
        <path
           id="path1030"
           d="m 1872.1951,705.19594 c 0,2.48057 -8.0343,4.4914 -17.945,4.4914 -9.9107,0 -17.9448,-2.01083 -17.9448,-4.4914 0,-2.48045 8.0341,-4.49134 17.9448,-4.49134 9.9107,0 17.945,2.01089 17.945,4.49134 z"
           style="color:#000000;display:inline;overflow:visible;visibility:visible;fill:none;stroke:#6ac1ff;stroke-width:1.97302;stroke-linecap:round;stroke-linejoin:round;stroke-miterlimit:4;stroke-dashoffset:0;stroke-opacity:1;marker:none;enable-background:accumulate" />
        <path
           style="color:#000000;display:inline;overflow:visible;visibility:visible;fill:none;stroke:#4a9ce6;stroke-width:1.97302;stroke-linecap:round;stroke-linejoin:round;stroke-miterlimit:4;stroke-dasharray:none;stroke-dashoffset:0;stroke-opacity:1;marker:none;enable-background:accumulate"
           d="m 1854.2815,698.7126 c -13.0334,0 -23.6013,3.10011 -23.6013,6.91562 0,3.81546 10.5679,6.89648 23.6013,6.89648 13.0335,0 23.6013,-3.08102 23.6013,-6.89648 0,-3.81551 -10.5678,-6.91562 -23.6013,-6.91562 z"
           id="path1032" />
        <g
           id="g1058"
           transform="matrix(0.78920714,0,0,0.78920714,871.68636,-79.136623)">
          <path
             d="m 1227.6825,990.32006 c 0,-4.10674 4.9224,-6.13008 9.5679,-6.05721 4.6456,0.0732 10.7334,2.74159 10.7334,6.48293 0,3.74044 -6.3572,3.56613 -10.7334,3.56613 -2.2043,0 -6.2112,0.27933 -7.9355,-0.69884 -1.7003,-0.96573 -1.7055,-3.29301 -1.6324,-3.29301 z"
             id="path1034"
             style="fill:#000000;fill-opacity:1;fill-rule:nonzero;stroke:#000000;stroke-width:2.20433;stroke-linecap:butt;stroke-linejoin:round;stroke-miterlimit:4;stroke-dasharray:none;stroke-opacity:1" />
          <path
             d="m 1227.6825,990.32006 c 0,-4.10674 4.9224,-6.13008 9.5679,-6.05721 4.6456,0.0732 10.7334,2.74159 10.7334,6.48293 0,3.74044 -6.3572,3.56613 -10.7334,3.56613 -2.2043,0 -6.2112,0.27933 -7.9355,-0.69884 -1.7003,-0.96573 -1.7055,-3.29301 -1.6324,-3.29301 z"
             id="path1036"
             style="fill:#a67e33;fill-opacity:1;fill-rule:nonzero;stroke:#000000;stroke-width:1.76346;stroke-linecap:butt;stroke-linejoin:round;stroke-miterlimit:4;stroke-dasharray:none;stroke-opacity:1" />
          <path
             d="m 1262.264,973.83207 c 0,10.16936 -8.2434,18.41259 -18.4125,18.41259 -10.1695,0 -18.4129,-8.24323 -18.4129,-18.41259 0,-10.1694 8.2434,-18.41293 18.4129,-18.41293 10.1691,0 18.4125,8.24353 18.4125,18.41293 z"
             id="path1038"
             style="fill:#000000;fill-opacity:1;fill-rule:evenodd;stroke:#000000;stroke-width:2.9503;stroke-linecap:butt;stroke-linejoin:round;stroke-miterlimit:4;stroke-dasharray:none;stroke-opacity:1" />
          <path
             d="m 1262.264,973.83207 c 0,10.16936 -8.2434,18.41259 -18.4125,18.41259 -10.1695,0 -18.4129,-8.24323 -18.4129,-18.41259 0,-10.1694 8.2434,-18.41293 18.4129,-18.41293 10.1691,0 18.4125,8.24353 18.4125,18.41293 z"
             id="path1040"
             style="fill:#ffa500;fill-opacity:1;fill-rule:evenodd;stroke:#000000;stroke-width:1.31125;stroke-linecap:butt;stroke-linejoin:miter;stroke-miterlimit:4;stroke-dasharray:none;stroke-opacity:1" />
          <path
             style="opacity:0.3;fill:#d40000;fill-opacity:1;fill-rule:evenodd;stroke:none"
             id="path1042"
             d="m 1259.611,965.67966 c 0.1067,0.81406 0.2052,1.63468 0.2052,2.47993 0,10.49872 -8.5125,19.03322 -19.0126,19.03322 -4.8301,0 -9.1847,-1.86446 -12.5391,-4.83508 3.0222,5.51853 8.8526,9.28056 15.5906,9.28056 9.8386,0 17.7845,-7.96528 17.7845,-17.80359 0,-2.95063 -0.7602,-5.70596 -2.0286,-8.15504 z" />
          <path
             d="m 1243.0216,990.32006 c 0,-4.10674 4.9225,-6.13008 9.5682,-6.05721 4.6454,0.0732 10.7335,2.74159 10.7335,6.48293 0,3.74044 -6.3573,3.56613 -10.7335,3.56613 -2.2042,0 -6.2112,0.27933 -7.9371,-0.69884 -1.7003,-0.96573 -1.7039,-3.29301 -1.6311,-3.29301 z"
             id="path1044"
             style="fill:#000000;fill-opacity:1;fill-rule:nonzero;stroke:#000000;stroke-width:2.20433;stroke-linecap:butt;stroke-linejoin:round;stroke-miterlimit:4;stroke-dasharray:none;stroke-opacity:1" />
          <path
             d="m 1243.0216,990.32006 c 0,-4.10674 4.9215,-6.13008 9.5682,-6.05721 4.6454,0.0732 10.7335,2.74159 10.7335,6.48293 0,3.74044 -6.3573,3.56613 -10.7335,3.56613 -2.2042,0 -6.2112,0.27933 -7.9371,-0.69884 -1.7003,-0.96573 -1.7039,-3.29301 -1.6311,-3.29301 z"
             id="path1046"
             style="fill:#a67e33;fill-opacity:1;fill-rule:nonzero;stroke:#000000;stroke-width:1.76346;stroke-linecap:butt;stroke-linejoin:round;stroke-miterlimit:4;stroke-dasharray:none;stroke-opacity:1" />
          <path
             style="color:#000000;display:inline;overflow:visible;visibility:visible;fill:#1a1a1a;fill-opacity:1;fill-rule:nonzero;stroke:none;stroke-width:4;marker:none;enable-background:accumulate"
             d="m 1249.1085,972.15392 c 0,3.19142 -1.3204,5.77859 -2.9492,5.77859 -1.6288,0 -2.9492,-2.58717 -2.9492,-5.77859 0,-3.19142 1.3204,-5.77858 2.9492,-5.77858 1.6288,0 2.9492,2.58716 2.9492,5.77858 z"
             id="path1048" />
          <path
             id="path1050"
             d="m 1246.1673,966.37397 c -1.6288,0 -2.9479,2.5831 -2.9479,5.77452 0,2.7504 0.9879,5.06094 2.3012,5.6474 -0.6631,-1.06351 -1.084,-2.67727 -1.084,-4.48523 0,-3.19142 1.319,-5.77452 2.9478,-5.77452 0.2251,0 0.436,0.0518 0.6467,0.14527 -0.5076,-0.81052 -1.1575,-1.30744 -1.8638,-1.30744 z"
             style="color:#000000;display:inline;overflow:visible;visibility:visible;fill:#000000;fill-opacity:1;fill-rule:nonzero;stroke:none;stroke-width:4;marker:none;enable-background:accumulate" />
          <path
             style="color:#000000;display:inline;overflow:visible;visibility:visible;fill:#1a1a1a;fill-opacity:1;fill-rule:nonzero;stroke:none;stroke-width:4;marker:none;enable-background:accumulate"
             d="m 1241.3682,972.14933 c 0,3.19142 -1.3204,5.77859 -2.9493,5.77859 -1.6288,0 -2.9492,-2.58717 -2.9492,-5.77859 0,-3.19143 1.3204,-5.77859 2.9492,-5.77859 1.6289,0 2.9493,2.58716 2.9493,5.77859 z"
             id="path1052" />
          <path
             id="path1054"
             d="m 1238.4269,966.36937 c -1.6288,0 -2.9479,2.58311 -2.9479,5.77453 0,2.75039 0.988,5.06094 2.3013,5.64741 -0.6632,-1.06353 -1.0841,-2.67729 -1.0841,-4.48524 0,-3.19143 1.319,-5.77453 2.9479,-5.77453 0.2251,0 0.436,0.0518 0.6466,0.14528 -0.5076,-0.81052 -1.1574,-1.30745 -1.8638,-1.30745 z"
             style="color:#000000;display:inline;overflow:visible;visibility:visible;fill:#000000;fill-opacity:1;fill-rule:nonzero;stroke:none;stroke-width:4;marker:none;enable-background:accumulate" />
          <path
             style="opacity:0.3;fill:#000000;fill-opacity:1;stroke:none"
             d="m 1259.8795,986.97487 c -0.1667,3.16667 -3.5833,6.20833 -10.625,6.875 h 10 l 3.75,-1.625 -0.125,-3 z"
             id="path1056" />
        </g>
        <path
           id="path1060"
           d="m 1838.2136,729.44918 c 0,4.0048 -12.9709,7.2512 -28.9714,7.2512 -16.0004,0 -28.9713,-3.2464 -28.9713,-7.2512 0,-4.0046 12.9709,-7.2511 28.9713,-7.2511 16.0005,0 28.9714,3.2465 28.9714,7.2511 z"
           style="color:#000000;display:inline;overflow:visible;visibility:visible;fill:none;stroke:#6ac1ff;stroke-width:3.18536;stroke-linecap:round;stroke-linejoin:round;stroke-miterlimit:4;stroke-dashoffset:0;stroke-opacity:1;marker:none;enable-background:accumulate" />
        <path
           style="color:#000000;display:inline;overflow:visible;visibility:visible;fill:none;stroke:#4a9ce6;stroke-width:3.18536;stroke-linecap:round;stroke-linejoin:round;stroke-miterlimit:4;stroke-dasharray:none;stroke-dashoffset:0;stroke-opacity:1;marker:none;enable-background:accumulate"
           d="m 1809.293,718.98208 c -21.042,0 -38.1034,5.005 -38.1034,11.165 0,6.1599 17.0614,11.1341 38.1034,11.1341 21.0418,0 38.1033,-4.9742 38.1033,-11.1341 0,-6.16 -17.0615,-11.165 -38.1033,-11.165 z"
           id="path1062" />
        <g
           id="g1088"
           transform="matrix(1.2741451,0,0,1.2741451,222.93033,-536.8261)">
          <path
             d="m 1227.6825,990.32006 c 0,-4.10674 4.9224,-6.13008 9.5679,-6.05721 4.6456,0.0732 10.7334,2.74159 10.7334,6.48293 0,3.74044 -6.3572,3.56613 -10.7334,3.56613 -2.2043,0 -6.2112,0.27933 -7.9355,-0.69884 -1.7003,-0.96573 -1.7055,-3.29301 -1.6324,-3.29301 z"
             id="path1064"
             style="fill:#000000;fill-opacity:1;fill-rule:nonzero;stroke:#000000;stroke-width:2.20433;stroke-linecap:butt;stroke-linejoin:round;stroke-miterlimit:4;stroke-dasharray:none;stroke-opacity:1" />
          <path
             d="m 1227.6825,990.32006 c 0,-4.10674 4.9224,-6.13008 9.5679,-6.05721 4.6456,0.0732 10.7334,2.74159 10.7334,6.48293 0,3.74044 -6.3572,3.56613 -10.7334,3.56613 -2.2043,0 -6.2112,0.27933 -7.9355,-0.69884 -1.7003,-0.96573 -1.7055,-3.29301 -1.6324,-3.29301 z"
             id="path1066"
             style="fill:#a67e33;fill-opacity:1;fill-rule:nonzero;stroke:#000000;stroke-width:1.76346;stroke-linecap:butt;stroke-linejoin:round;stroke-miterlimit:4;stroke-dasharray:none;stroke-opacity:1" />
          <path
             d="m 1262.264,973.83207 c 0,10.16936 -8.2434,18.41259 -18.4125,18.41259 -10.1695,0 -18.4129,-8.24323 -18.4129,-18.41259 0,-10.1694 8.2434,-18.41293 18.4129,-18.41293 10.1691,0 18.4125,8.24353 18.4125,18.41293 z"
             id="path1068"
             style="fill:#000000;fill-opacity:1;fill-rule:evenodd;stroke:#000000;stroke-width:2.9503;stroke-linecap:butt;stroke-linejoin:round;stroke-miterlimit:4;stroke-dasharray:none;stroke-opacity:1" />
          <path
             d="m 1262.264,973.83207 c 0,10.16936 -8.2434,18.41259 -18.4125,18.41259 -10.1695,0 -18.4129,-8.24323 -18.4129,-18.41259 0,-10.1694 8.2434,-18.41293 18.4129,-18.41293 10.1691,0 18.4125,8.24353 18.4125,18.41293 z"
             id="path1070"
             style="fill:#ffa500;fill-opacity:1;fill-rule:evenodd;stroke:#000000;stroke-width:1.31125;stroke-linecap:butt;stroke-linejoin:miter;stroke-miterlimit:4;stroke-dasharray:none;stroke-opacity:1" />
          <path
             style="opacity:0.3;fill:#d40000;fill-opacity:1;fill-rule:evenodd;stroke:none"
             id="path1072"
             d="m 1259.611,965.67966 c 0.1067,0.81406 0.2052,1.63468 0.2052,2.47993 0,10.49872 -8.5125,19.03322 -19.0126,19.03322 -4.8301,0 -9.1847,-1.86446 -12.5391,-4.83508 3.0222,5.51853 8.8526,9.28056 15.5906,9.28056 9.8386,0 17.7845,-7.96528 17.7845,-17.80359 0,-2.95063 -0.7602,-5.70596 -2.0286,-8.15504 z" />
          <path
             d="m 1243.0216,990.32006 c 0,-4.10674 4.9225,-6.13008 9.5682,-6.05721 4.6454,0.0732 10.7335,2.74159 10.7335,6.48293 0,3.74044 -6.3573,3.56613 -10.7335,3.56613 -2.2042,0 -6.2112,0.27933 -7.9371,-0.69884 -1.7003,-0.96573 -1.7039,-3.29301 -1.6311,-3.29301 z"
             id="path1074"
             style="fill:#000000;fill-opacity:1;fill-rule:nonzero;stroke:#000000;stroke-width:2.20433;stroke-linecap:butt;stroke-linejoin:round;stroke-miterlimit:4;stroke-dasharray:none;stroke-opacity:1" />
          <path
             d="m 1243.0216,990.32006 c 0,-4.10674 4.9215,-6.13008 9.5682,-6.05721 4.6454,0.0732 10.7335,2.74159 10.7335,6.48293 0,3.74044 -6.3573,3.56613 -10.7335,3.56613 -2.2042,0 -6.2112,0.27933 -7.9371,-0.69884 -1.7003,-0.96573 -1.7039,-3.29301 -1.6311,-3.29301 z"
             id="path1076"
             style="fill:#a67e33;fill-opacity:1;fill-rule:nonzero;stroke:#000000;stroke-width:1.76346;stroke-linecap:butt;stroke-linejoin:round;stroke-miterlimit:4;stroke-dasharray:none;stroke-opacity:1" />
          <path
             style="color:#000000;display:inline;overflow:visible;visibility:visible;fill:#1a1a1a;fill-opacity:1;fill-rule:nonzero;stroke:none;stroke-width:4;marker:none;enable-background:accumulate"
             d="m 1250.3985,972.41196 c 0,3.19142 -1.3204,5.77859 -2.9492,5.77859 -1.6288,0 -2.9492,-2.58717 -2.9492,-5.77859 0,-3.19142 1.3204,-5.77858 2.9492,-5.77858 1.6288,0 2.9492,2.58716 2.9492,5.77858 z"
             id="path1078" />
          <path
             id="path1080"
             d="m 1247.4573,966.63201 c -1.6288,0 -2.9479,2.5831 -2.9479,5.77452 0,2.7504 0.9879,5.06094 2.3012,5.6474 -0.6631,-1.06351 -1.084,-2.67727 -1.084,-4.48523 0,-3.19142 1.319,-5.77452 2.9478,-5.77452 0.2251,0 0.436,0.0518 0.6467,0.14527 -0.5076,-0.81052 -1.1575,-1.30744 -1.8638,-1.30744 z"
             style="color:#000000;display:inline;overflow:visible;visibility:visible;fill:#000000;fill-opacity:1;fill-rule:nonzero;stroke:none;stroke-width:4;marker:none;enable-background:accumulate" />
          <path
             style="color:#000000;display:inline;overflow:visible;visibility:visible;fill:#1a1a1a;fill-opacity:1;fill-rule:nonzero;stroke:none;stroke-width:4;marker:none;enable-background:accumulate"
             d="m 1242.6582,972.40737 c 0,3.19142 -1.3204,5.77859 -2.9493,5.77859 -1.6288,0 -2.9492,-2.58717 -2.9492,-5.77859 0,-3.19143 1.3204,-5.77859 2.9492,-5.77859 1.6289,0 2.9493,2.58716 2.9493,5.77859 z"
             id="path1082" />
          <path
             id="path1084"
             d="m 1239.7169,966.62741 c -1.6288,0 -2.9479,2.58311 -2.9479,5.77453 0,2.75039 0.988,5.06094 2.3013,5.64741 -0.6632,-1.06353 -1.0841,-2.67729 -1.0841,-4.48524 0,-3.19143 1.319,-5.77453 2.9479,-5.77453 0.2251,0 0.436,0.0518 0.6466,0.14528 -0.5076,-0.81052 -1.1574,-1.30745 -1.8638,-1.30745 z"
             style="color:#000000;display:inline;overflow:visible;visibility:visible;fill:#000000;fill-opacity:1;fill-rule:nonzero;stroke:none;stroke-width:4;marker:none;enable-background:accumulate" />
          <path
             style="opacity:0.3;fill:#000000;fill-opacity:1;stroke:none"
             d="m 1259.8795,986.97487 c -0.1667,3.16667 -3.5833,6.20833 -10.625,6.875 h 10 l 3.75,-1.625 -0.125,-3 z"
             id="path1086" />
        </g>
      </g>
      <g
         transform="matrix(0.77675272,0,0,0.77675272,-584.86768,-49.70888)"
         id="g1104"
         style="font-style:oblique;font-variant:normal;font-weight:normal;font-stretch:normal;font-size:66.6161px;line-height:80%;font-family:'Frutiger LT 65 Bold';-inkscape-font-specification:'Frutiger LT 65 Bold, Oblique';letter-spacing:0px;word-spacing:0px;opacity:0.3;fill:#000000;fill-opacity:1;stroke:#000000;stroke-width:4.9962;stroke-miterlimit:4;stroke-opacity:1">
        <path
           id="path1092"
           style="letter-spacing:-3.3308px;fill:#000000"
           d="M 391.66249,324.73999 H 404.386 c 7.32285,0.18458 13.85567,-1.38365 19.59847,-4.7047 5.74272,-3.32104 9.52512,-9.50237 11.34719,-18.544 1.00752,-6.09609 0.57984,-10.83892 -1.28304,-14.22852 -1.86297,-3.38952 -4.69865,-5.75395 -8.50704,-7.09328 -3.80848,-1.33925 -8.12717,-1.98155 -12.95611,-1.92691 h -12.7235 z m 16.23343,-39.16974 h 5.19598 c 4.04285,0.0306 7.32594,1.41839 9.8493,4.16345 2.52328,2.74513 3.41149,6.66433 2.66464,11.75759 -1.04947,5.0933 -3.31993,9.01249 -6.81137,11.75758 -3.49151,2.74511 -7.26406,4.13292 -11.31768,4.16345 h -5.19599 z" />
        <path
           id="path1094"
           style="letter-spacing:-3.3308px;fill:#000000"
           d="m 436.4722,324.73999 h 12.7235 c 7.32286,0.18458 13.85568,-1.38365 19.59848,-4.7047 5.74272,-3.32104 9.52511,-9.50237 11.34719,-18.544 1.00751,-6.09609 0.57983,-10.83892 -1.28304,-14.22852 -1.86297,-3.38952 -4.69865,-5.75395 -8.50705,-7.09328 -3.80847,-1.33925 -8.12717,-1.98155 -12.9561,-1.92691 h -12.7235 z m 16.23342,-39.16974 h 5.19599 c 4.04284,0.0306 7.32594,1.41839 9.84929,4.16345 2.52328,2.74513 3.4115,6.66433 2.66465,11.75759 -1.04947,5.0933 -3.31993,9.01249 -6.81137,11.75758 -3.49151,2.74511 -7.26406,4.13292 -11.31768,4.16345 h -5.19599 z" />
        <path
           id="path1096"
           style="letter-spacing:-3.3308px;fill:#000000"
           d="m 480.68237,324.73999 h 8.92644 l 2.2202,-12.59027 c 0.25928,-1.72458 0.69089,-3.66382 1.29484,-5.81773 0.60391,-2.15387 1.56294,-4.0339 2.87708,-5.64009 1.31411,-1.60614 3.16612,-2.44993 5.55603,-2.53137 0.81576,0.001 1.57058,0.0652 2.26445,0.19151 0.69381,0.12632 1.22823,0.30674 1.60324,0.54125 l 1.58586,-8.99305 c -0.44521,-0.12764 -0.89504,-0.20536 -1.34948,-0.23315 -0.4545,-0.0277 -0.89942,-0.0388 -1.33475,-0.0333 -2.72585,0.15825 -5.08957,1.19078 -7.09119,3.09761 -2.00166,1.90689 -3.27397,3.7388 -3.81693,5.49575 h -0.13323 l 1.37441,-7.79398 h -7.92721 z" />
        <path
           id="path1098"
           style="letter-spacing:-3.3308px;fill:#000000"
           d="m 509.22379,299.89252 c 1.71763,-1.14631 3.54258,-2.05117 5.47484,-2.71457 1.93222,-0.66335 3.85716,-1.00197 5.77482,-1.01588 2.63094,-0.0374 4.48121,0.5038 5.55082,1.62374 1.06955,1.12 1.36042,3.04351 0.87261,5.77055 h -4.92952 c -1.89627,-0.0208 -3.88067,0.1041 -5.9532,0.37471 -2.07256,0.27064 -4.04711,0.81189 -5.92364,1.62374 -1.87452,0.81606 -3.48766,2.01513 -4.83943,3.59722 -1.35178,1.58213 -2.26829,3.6472 -2.74953,6.19522 -0.45781,3.2808 0.33944,5.79552 2.39176,7.54417 2.05231,1.74865 4.65286,2.6313 7.80167,2.64795 2.09174,-0.01 4.1974,-0.52321 6.31698,-1.54048 2.11953,-1.01726 3.89297,-2.48002 5.32032,-4.38827 h 0.13323 c -0.0751,0.56762 -0.17643,1.33092 -0.30388,2.2899 -0.1275,0.95898 -0.19448,1.90547 -0.20095,2.83947 h 7.86059 c 0.13327,-1.32259 0.27663,-2.6077 0.43006,-3.85535 0.15336,-1.24765 0.32709,-2.51611 0.52117,-3.8054 0.18553,-1.24902 0.387,-2.56467 0.60442,-3.94695 0.21735,-1.38225 0.47659,-2.93105 0.77772,-4.64641 l 0.77531,-4.3966 c 0.92483,-5.0322 0.41544,-8.70714 -1.52817,-11.02482 -1.94368,-2.31762 -5.51411,-3.46118 -10.71128,-3.43068 -1.94305,0.008 -4.01315,0.24151 -6.21031,0.69946 -2.1972,0.45801 -4.25451,1.09086 -6.17195,1.89853 z m 1.89849,14.92181 c 0.61332,-2.54941 2.05823,-4.19536 4.33474,-4.93786 2.27648,-0.74246 4.48861,-1.07276 6.63641,-0.9909 h 3.86369 c -0.22232,1.33926 -0.57368,2.60772 -1.0541,3.8054 -0.48046,1.19769 -1.1659,2.28296 -2.05632,3.25581 -0.86868,0.94373 -1.87696,1.68759 -3.02483,2.23161 -1.14792,0.54403 -2.40704,0.8216 -3.77737,0.83269 -1.63633,0.008 -2.921,-0.32474 -3.85401,-0.99923 -0.93304,-0.67447 -1.28911,-1.74031 -1.06821,-3.19752 z" />
        <path
           id="path1100"
           style="letter-spacing:-3.3308px;fill:#000000"
           d="m 565.83379,290.76624 c -1.14952,-0.36774 -2.40185,-0.64808 -3.75701,-0.84102 -1.35521,-0.19287 -2.92297,-0.29002 -4.70326,-0.29144 -5.40466,0.12078 -9.81377,1.84444 -13.22736,5.17101 -3.41361,3.32662 -5.57904,7.5317 -6.4963,12.61525 -0.93863,5.33061 -0.28891,9.65782 1.94917,12.98163 2.23807,3.32383 6.16336,5.03639 11.77588,5.1377 1.81198,0.003 3.44861,-0.086 4.9099,-0.26646 1.46124,-0.18042 2.86665,-0.46908 4.21623,-0.866 l 0.90424,-7.39428 c -0.86116,0.35806 -1.94149,0.70779 -3.24099,1.04919 -1.29955,0.34141 -2.60031,0.5246 -3.9023,0.54957 -3.11291,-0.0708 -5.24946,-1.14494 -6.40968,-3.22251 -1.16025,-2.07755 -1.45236,-4.73383 -0.87633,-7.96884 0.61021,-3.27939 1.89058,-5.89681 3.84113,-7.85227 1.95051,-1.95541 4.32828,-2.95741 7.13332,-3.00601 1.34632,0.007 2.47716,0.12632 3.39252,0.35806 0.91531,0.23179 1.73073,0.53433 2.44627,0.90763 z" />
        <path
           id="path1102"
           style="letter-spacing:-3.3308px;fill:#000000"
           d="m 572.94452,304.22251 c 0.60673,-2.34678 1.69159,-4.26474 3.25459,-5.75389 1.56296,-1.4891 3.5943,-2.25795 6.09402,-2.30655 2.46017,0.0653 4.1201,0.86741 4.97979,2.40647 0.85963,1.53912 1.14626,3.42377 0.85986,5.65397 z m 19.18663,11.32458 c -1.83061,0.96038 -3.74716,1.77086 -5.74966,2.43146 -2.00256,0.6606 -4.08669,1.00478 -6.25239,1.03253 -2.79933,-0.0153 -4.93993,-0.76745 -6.4218,-2.25659 -1.4819,-1.48911 -2.09641,-3.62357 -1.84351,-6.40338 h 23.71501 c 1.19245,-6.10915 0.93597,-11.06088 -0.76945,-14.85519 -1.70549,-3.79426 -5.67147,-5.7483 -11.89793,-5.86214 -5.3502,0.13465 -9.64975,1.91383 -12.89866,5.33754 -3.24894,3.42377 -5.32147,7.68437 -6.21758,12.78179 -0.96039,5.66647 -0.16028,10.03809 2.40031,13.11487 2.56058,3.07679 6.68814,4.63392 12.3827,4.67139 2.38588,-0.001 4.58317,-0.23176 6.59188,-0.69113 2.00865,-0.45937 3.9022,-1.1394 5.68064,-2.04009 z" />
      </g>
      <g
         transform="matrix(0.77675272,0,0,0.77675272,-587.28008,-49.70888)"
         id="g1120"
         style="font-style:oblique;font-variant:normal;font-weight:normal;font-stretch:normal;font-size:66.6161px;line-height:80%;font-family:'Frutiger LT 65 Bold';-inkscape-font-specification:'Frutiger LT 65 Bold, Oblique';letter-spacing:-3.3308px;word-spacing:0px;opacity:0.3;fill:#000000;fill-opacity:1;stroke:#000000;stroke-width:4.9962;stroke-miterlimit:4;stroke-opacity:1">
        <path
           id="path1106"
           d="m 385.56804,377.08115 h 8.92644 l 6.13199,-34.77314 h 0.13323 l 11.65427,34.77314 h 11.3912 l 8.19947,-46.49741 h -8.92643 l -6.13199,34.77313 h -0.13323 l -11.58766,-34.77313 h -11.45781 z" />
        <path
           id="path1108"
           d="m 439.99123,356.56366 c 0.60673,-2.34677 1.69159,-4.26473 3.25459,-5.75389 1.56296,-1.48909 3.5943,-2.25794 6.09401,-2.30654 2.46018,0.0653 4.12011,0.86741 4.9798,2.40647 0.85963,1.53911 1.14625,3.42377 0.85986,5.65396 z m 19.18662,11.32459 c -1.8306,0.96038 -3.74715,1.77086 -5.74966,2.43145 -2.00256,0.66061 -4.08669,1.00479 -6.25239,1.03254 -2.79932,-0.0153 -4.93992,-0.76746 -6.42179,-2.25659 -1.48191,-1.48912 -2.09641,-3.62358 -1.84352,-6.40339 h 23.71501 c 1.19246,-6.10915 0.93598,-11.06087 -0.76944,-14.85519 -1.7055,-3.79425 -5.67147,-5.7483 -11.89793,-5.86213 -5.3502,0.13465 -9.64975,1.91383 -12.89867,5.33754 -3.24894,3.42377 -5.32146,7.68436 -6.21758,12.78179 -0.96038,5.66647 -0.16028,10.03808 2.40032,13.11487 2.56058,3.07679 6.68814,4.63392 12.3827,4.67139 2.38588,-0.001 4.58317,-0.23177 6.59187,-0.69113 2.00866,-0.45937 3.9022,-1.1394 5.68065,-2.04009 z" />
        <path
           id="path1110"
           d="m 468.54694,366.75579 c -0.5907,3.43624 -0.13205,6.13971 1.37596,8.1104 1.50798,1.9707 4.01483,2.97548 7.52055,3.01434 1.32396,0 2.53478,-0.0666 3.63247,-0.19985 1.09764,-0.13323 2.13211,-0.33307 3.1034,-0.59953 l 0.97874,-7.06122 c -0.53055,0.30117 -1.16516,0.53154 -1.90384,0.69114 -0.73873,0.1596 -1.51345,0.2401 -2.32415,0.24148 -1.65194,-0.0527 -2.67426,-0.63006 -3.06697,-1.732 -0.39275,-1.10192 -0.43651,-2.41201 -0.13129,-3.93029 l 2.81931,-15.98765 h 7.92721 l 1.15121,-6.52829 h -7.92721 l 1.71508,-9.72582 -9.43156,2.86445 -1.20995,6.86137 h -6.59491 l -1.15121,6.52829 h 6.5949 z" />
        <path
           id="path1112"
           d="m 494.08343,377.08115 h 10.19212 l 11.94428,-26.17978 h 0.13323 l 2.8443,26.17978 h 10.5252 l 16.57495,-34.30683 h -8.52674 l -11.60347,25.38039 h -0.13323 l -2.98526,-25.38039 h -10.39197 l -11.40363,25.38039 h -0.13323 l -3.11849,-25.38039 h -9.45935 z" />
        <path
           id="path1114"
           d="m 543.01054,360.16089 c -0.85197,5.05166 -0.0191,9.23731 2.4987,12.55696 2.51775,3.31966 6.61643,5.04055 12.29606,5.16268 5.75458,-0.12213 10.47963,-1.84302 14.17516,-5.16268 3.69545,-3.31965 6.00734,-7.5053 6.93568,-12.55696 0.89485,-5.71224 -0.0447,-10.1588 -2.81865,-13.3397 -2.77404,-3.18084 -6.76087,-4.79626 -11.9605,-4.84625 -5.18539,0.05 -9.72252,1.66541 -13.61141,4.84625 -3.88892,3.1809 -6.39393,7.62746 -7.51504,13.3397 z m 9.51408,-1.06585 c 0.46644,-2.66875 1.58684,-5.00861 3.36121,-7.01958 1.77434,-2.01092 4.11749,-3.06843 7.02946,-3.17254 2.9086,0.0958 4.90115,1.13665 5.97765,3.12258 1.07643,1.98599 1.37144,4.3425 0.88502,7.06954 -0.46114,3.00048 -1.52158,5.69284 -3.18131,8.07709 -1.6598,2.38428 -4.18301,3.64442 -7.56965,3.78042 -3.30606,-0.14017 -5.36394,-1.40863 -6.17366,-3.8054 -0.80974,-2.39674 -0.91932,-5.08078 -0.32872,-8.05211 z" />
        <path
           id="path1116"
           d="m 579.81839,377.08115 h 8.92644 l 2.2202,-12.59028 c 0.25928,-1.72458 0.69089,-3.66382 1.29484,-5.81772 0.60391,-2.15388 1.56294,-4.0339 2.87708,-5.64009 1.31411,-1.60614 3.16611,-2.44993 5.55603,-2.53138 0.81576,10e-4 1.57058,0.0653 2.26445,0.19152 0.69381,0.12632 1.22822,0.30673 1.60324,0.54125 l 1.58586,-8.99305 c -0.44521,-0.12765 -0.89504,-0.20537 -1.34948,-0.23316 -0.4545,-0.0277 -0.89942,-0.0388 -1.33476,-0.0333 -2.72584,0.15824 -5.08956,1.19078 -7.09118,3.0976 -2.00166,1.90689 -3.27397,3.73881 -3.81694,5.49576 h -0.13323 l 1.37441,-7.79398 h -7.92721 z" />
        <path
           id="path1118"
           d="m 602.37938,377.08115 h 8.92644 l 2.93677,-16.6538 h 0.13323 l 8.52104,16.6538 h 11.32458 l -11.04096,-18.98534 15.49196,-15.32149 h -10.52521 l -13.07833,13.72273 h -0.13323 l 5.18047,-29.3773 h -8.92644 z" />
      </g>
      <g
         style="font-style:oblique;font-variant:normal;font-weight:normal;font-stretch:normal;font-size:51.7442px;line-height:80%;font-family:'Frutiger LT 65 Bold';-inkscape-font-specification:'Frutiger LT 65 Bold, Oblique';letter-spacing:0px;word-spacing:0px;fill:#000000;fill-opacity:1;stroke:#000000;stroke-width:3.88082;stroke-miterlimit:4;stroke-opacity:1"
         id="g1134"
         transform="translate(-656.46618,-241.7264)">
        <path
           d="m 373.44607,441.88281 h 9.88301 c 5.68805,0.14338 10.76243,-1.07475 15.22317,-3.65439 4.46068,-2.57962 7.39866,-7.38098 8.81396,-14.4041 0.78259,-4.73515 0.45039,-8.41916 -0.9966,-11.05204 -1.44707,-2.63282 -3.64969,-4.46939 -6.60787,-5.50973 -2.95825,-1.04026 -6.3128,-1.53917 -10.06369,-1.49673 h -9.88302 z m 12.60935,-30.4252 h 4.036 c 3.14029,0.0238 5.69044,1.10174 7.65046,3.23397 1.95997,2.13229 2.64989,5.17653 2.06978,9.13274 -0.81519,3.95624 -2.57877,7.00048 -5.29075,9.13273 -2.71204,2.13227 -5.64239,3.21026 -8.79105,3.23397 h -4.03599 z"
           style="letter-spacing:-2.58721px;fill:#000000"
           id="path1122" />
        <path
           d="m 408.25213,441.88281 h 9.88302 c 5.68805,0.14338 10.76243,-1.07475 15.22316,-3.65439 4.46068,-2.57962 7.39867,-7.38098 8.81397,-14.4041 0.78259,-4.73515 0.45039,-8.41916 -0.99661,-11.05204 -1.44707,-2.63282 -3.64969,-4.46939 -6.60787,-5.50973 -2.95824,-1.04026 -6.3128,-1.53917 -10.06369,-1.49673 h -9.88301 z m 12.60936,-30.4252 h 4.03599 c 3.14029,0.0238 5.69045,1.10174 7.65047,3.23397 1.95996,2.13229 2.64989,5.17653 2.06977,9.13274 -0.81518,3.95624 -2.57876,7.00048 -5.29075,9.13273 -2.71204,2.13227 -5.64238,3.21026 -8.79104,3.23397 h -4.036 z"
           style="letter-spacing:-2.58721px;fill:#000000"
           id="path1124" />
        <path
           d="m 442.5925,441.88281 h 6.93364 l 1.72454,-9.77953 c 0.2014,-1.33957 0.53666,-2.84588 1.00577,-4.51893 0.46909,-1.67303 1.21402,-3.13334 2.23479,-4.38096 1.02073,-1.24757 2.45928,-1.90299 4.31565,-1.96625 0.63365,10e-4 1.21996,0.0507 1.75892,0.14876 0.53892,0.0981 0.95403,0.23826 1.24532,0.42042 l 1.23182,-6.98538 c -0.34581,-0.0992 -0.69522,-0.15951 -1.04821,-0.1811 -0.35303,-0.0215 -0.69862,-0.0302 -1.03677,-0.0259 -2.11731,0.12292 -3.95334,0.92494 -5.5081,2.40607 -1.55479,1.48118 -2.54306,2.90413 -2.96481,4.26884 h -0.10349 l 1.06758,-6.05399 h -6.15748 z"
           style="letter-spacing:-2.58721px;fill:#000000"
           id="path1126" />
        <path
           d="m 464.76213,422.58247 c 1.33417,-0.8904 2.7517,-1.59325 4.25259,-2.10855 1.50086,-0.51526 2.99606,-0.77828 4.48561,-0.78909 2.04359,-0.0291 3.48079,0.39134 4.31161,1.26125 0.83078,0.86996 1.05671,2.36405 0.67781,4.48229 h -3.82903 c -1.47293,-0.0162 -3.01431,0.0809 -4.62416,0.29106 -1.60986,0.21022 -3.1436,0.63064 -4.60121,1.26124 -1.45603,0.63388 -2.70905,1.56526 -3.75903,2.79415 -1.05,1.22893 -1.76191,2.83297 -2.13571,4.81215 -0.35561,2.54838 0.26366,4.50169 1.85781,5.85996 1.59413,1.35827 3.61412,2.04387 6.05996,2.0568 1.62477,-0.008 3.26035,-0.4064 4.90673,-1.19657 1.64636,-0.79016 3.02388,-1.92636 4.13258,-3.4086 h 0.10349 c -0.0584,0.4409 -0.13705,1.0338 -0.23604,1.77868 -0.099,0.7449 -0.15107,1.48009 -0.15609,2.20557 h 6.10574 c 0.10352,-1.02732 0.21486,-2.02554 0.33404,-2.99465 0.11913,-0.96911 0.25407,-1.9544 0.40482,-2.95585 0.14411,-0.97019 0.30061,-1.99212 0.46949,-3.06581 0.16882,-1.07367 0.37019,-2.2767 0.6041,-3.60911 l 0.60222,-3.41507 c 0.71836,-3.90878 0.32269,-6.76329 -1.18701,-8.56356 -1.50976,-1.80022 -4.2831,-2.68848 -8.32002,-2.66479 -1.50927,0.006 -3.11722,0.18759 -4.82387,0.5433 -1.70668,0.35577 -3.30471,0.84733 -4.79408,1.4747 z m 1.47465,11.59056 c 0.4764,-1.98026 1.59874,-3.25876 3.36702,-3.8355 1.76826,-0.57671 3.48654,-0.83327 5.15485,-0.76968 h 3.00113 c -0.17268,1.04027 -0.44561,2.02555 -0.81877,2.95585 -0.3732,0.93031 -0.90562,1.7733 -1.59726,2.52897 -0.67474,0.73303 -1.45793,1.31084 -2.34954,1.7334 -0.89165,0.42258 -1.86968,0.63818 -2.93408,0.6468 -1.27103,0.006 -2.2689,-0.25225 -2.99362,-0.77615 -0.72474,-0.5239 -1.00131,-1.3518 -0.82973,-2.48369 z"
           style="letter-spacing:-2.58721px;fill:#000000"
           id="path1128" />
        <path
           d="m 508.7341,415.49361 c -0.8929,-0.28564 -1.86565,-0.5034 -2.91827,-0.65327 -1.05267,-0.14981 -2.27043,-0.22527 -3.65327,-0.22637 -4.19808,0.0938 -7.62287,1.43267 -10.27439,4.01659 -2.65153,2.58396 -4.33354,5.85027 -5.04602,9.79893 -0.72909,4.14057 -0.22441,7.50174 1.51403,10.08352 1.73842,2.58179 4.7874,3.91203 9.14694,3.99072 1.40746,0.002 2.67872,-0.0668 3.81378,-0.20697 1.13502,-0.14014 2.22667,-0.36436 3.27497,-0.67267 l 0.70237,-5.74353 c -0.66891,0.27813 -1.50806,0.54978 -2.51745,0.81496 -1.00943,0.26519 -2.0198,0.40749 -3.03113,0.42689 -2.41795,-0.055 -4.07753,-0.88934 -4.97873,-2.5031 -0.90123,-1.61374 -1.12812,-3.67701 -0.68069,-6.18982 0.47398,-2.54727 1.46852,-4.58036 2.98361,-6.09927 1.51506,-1.51887 3.362,-2.29717 5.54082,-2.33492 1.04576,0.005 1.92414,0.0981 2.63515,0.27812 0.71097,0.18004 1.34435,0.41504 1.90015,0.705 z"
           style="letter-spacing:-2.58721px;fill:#000000"
           id="path1130" />
        <path
           d="m 514.25737,425.9458 c 0.47128,-1.82286 1.31396,-3.31264 2.52802,-4.46935 1.21403,-1.15666 2.79188,-1.75386 4.73354,-1.79162 1.91095,0.0507 3.2003,0.67377 3.86807,1.86924 0.66772,1.19551 0.89036,2.65942 0.6679,4.39173 z m 14.90327,8.7964 c -1.42193,0.74598 -2.91061,1.37553 -4.46606,1.88864 -1.5555,0.51313 -3.17435,0.78047 -4.85656,0.80203 -2.17439,-0.0119 -3.83711,-0.59613 -4.98815,-1.75281 -1.15108,-1.15668 -1.62839,-2.81463 -1.43196,-4.97385 h 18.4207 c 0.92625,-4.7453 0.72702,-8.59157 -0.59767,-11.53881 -1.32475,-2.9472 -4.40533,-4.46501 -9.24175,-4.55343 -4.15578,0.10459 -7.49547,1.48657 -10.01907,4.14595 -2.52362,2.65942 -4.13346,5.96885 -4.82952,9.92829 -0.74598,4.40144 -0.1245,7.79711 1.86445,10.18701 1.98893,2.3899 5.19503,3.59941 9.61829,3.62851 1.85324,-0.001 3.55999,-0.18002 5.12026,-0.53683 1.56023,-0.35682 3.03105,-0.88503 4.41246,-1.58465 z"
           style="letter-spacing:-2.58721px;fill:#000000"
           id="path1132" />
      </g>
      <g
         style="font-style:oblique;font-variant:normal;font-weight:normal;font-stretch:normal;font-size:51.7442px;line-height:80%;font-family:'Frutiger LT 65 Bold';-inkscape-font-specification:'Frutiger LT 65 Bold, Oblique';letter-spacing:-2.58721px;word-spacing:0px;fill:#000000;fill-opacity:1;stroke:#000000;stroke-width:3.88082;stroke-miterlimit:4;stroke-opacity:1"
         id="g1150"
         transform="translate(-658.87858,-241.7264)">
        <path
           d="m 368.71217,482.53897 h 6.93363 l 4.76304,-27.01013 h 0.10349 l 9.05249,27.01013 h 8.84814 l 6.36897,-36.11699 h -6.93364 l -4.76303,27.01013 h -0.10349 l -9.00075,-27.01013 h -8.89989 z"
           id="path1136" />
        <path
           d="m 410.98552,466.60196 c 0.47128,-1.82286 1.31395,-3.31265 2.52802,-4.46935 1.21403,-1.15666 2.79188,-1.75387 4.73354,-1.79162 1.91095,0.0507 3.2003,0.67377 3.86807,1.86924 0.66772,1.19551 0.89036,2.65942 0.6679,4.39173 z m 14.90327,8.7964 c -1.42193,0.74598 -2.91061,1.37552 -4.46607,1.88864 -1.55549,0.51313 -3.17434,0.78047 -4.85656,0.80203 -2.17438,-0.0119 -3.8371,-0.59613 -4.98814,-1.75282 -1.15108,-1.15667 -1.62839,-2.81462 -1.43196,-4.97384 h 18.4207 c 0.92624,-4.7453 0.72702,-8.59157 -0.59767,-11.53881 -1.32475,-2.9472 -4.40533,-4.46501 -9.24175,-4.55343 -4.15578,0.10459 -7.49547,1.48657 -10.01907,4.14595 -2.52362,2.65942 -4.13346,5.96885 -4.82952,9.92829 -0.74598,4.40144 -0.1245,7.79711 1.86445,10.18701 1.98893,2.3899 5.19503,3.59941 9.61829,3.62851 1.85324,-0.001 3.55999,-0.18002 5.12026,-0.53684 1.56023,-0.35681 3.03105,-0.88503 4.41246,-1.58464 z"
           id="path1138" />
        <path
           d="m 433.16626,474.51872 c -0.45883,2.66911 -0.10257,4.76904 1.06877,6.29978 1.17133,1.53074 3.11854,2.31121 5.84162,2.34139 1.02839,0 1.96889,-0.0517 2.82152,-0.15523 0.8526,-0.10348 1.65612,-0.25872 2.41058,-0.46569 l 0.76024,-5.48481 c -0.4121,0.23392 -0.90504,0.41287 -1.47881,0.53683 -0.57381,0.12398 -1.17558,0.1865 -1.80529,0.18758 -1.28315,-0.041 -2.07724,-0.48941 -2.38228,-1.34534 -0.30507,-0.85591 -0.33906,-1.87354 -0.10198,-3.05287 l 2.1899,-12.41844 h 6.15749 l 0.89421,-5.07087 h -6.15749 l 1.3322,-7.55456 -7.326,2.22497 -0.93983,5.32959 h -5.12261 l -0.89421,5.07087 h 5.12261 z"
           id="path1140" />
        <path
           d="m 453.00179,482.53897 h 7.91676 l 9.27776,-20.33521 h 0.10348 l 2.20932,20.33521 h 8.17548 l 12.87464,-26.64792 h -6.62317 l -9.01303,19.71429 h -0.10349 l -2.31881,-19.71429 h -8.07199 l -8.8578,19.71429 h -0.10348 l -2.4223,-19.71429 h -7.34758 z"
           id="path1142" />
        <path
           d="m 491.00606,469.39611 c -0.66177,3.9239 -0.0148,7.17511 1.94087,9.75366 1.95567,2.57855 5.13933,3.91526 9.551,4.01012 4.46989,-0.0949 8.14008,-1.43157 11.01059,-4.01012 2.87045,-2.57855 4.66622,-5.82976 5.38731,-9.75366 0.69508,-4.43699 -0.0347,-7.89087 -2.1894,-10.36164 -2.15474,-2.47073 -5.25152,-3.72551 -9.29035,-3.76434 -4.02776,0.0388 -7.55199,1.29361 -10.5727,3.76434 -3.02073,2.47077 -4.9665,5.92465 -5.83732,10.36164 z m 7.39009,-0.82789 c 0.36231,-2.07296 1.23258,-3.89045 2.61083,-5.45248 1.37821,-1.56199 3.19826,-2.38342 5.46015,-2.46429 2.25926,0.0744 3.80698,0.8829 4.64315,2.42548 0.83612,1.54262 1.06527,3.37305 0.68744,5.49129 -0.35819,2.33062 -1.18188,4.42192 -2.47109,6.2739 -1.28925,1.85199 -3.24916,2.83081 -5.87974,2.93645 -2.56799,-0.10888 -4.16646,-1.09416 -4.79541,-2.95586 -0.62897,-1.86168 -0.71408,-3.94651 -0.25533,-6.25449 z"
           id="path1144" />
        <path
           d="m 519.59666,482.53897 h 6.93363 l 1.72455,-9.77953 c 0.2014,-1.33957 0.53665,-2.84588 1.00577,-4.51893 0.46909,-1.67303 1.21402,-3.13335 2.23478,-4.38096 1.02074,-1.24757 2.45929,-1.90299 4.31566,-1.96625 0.63365,10e-4 1.21995,0.0507 1.75892,0.14876 0.53892,0.0981 0.95403,0.23826 1.24532,0.42042 l 1.23182,-6.98538 c -0.34582,-0.0992 -0.69522,-0.15952 -1.04821,-0.1811 -0.35303,-0.0215 -0.69863,-0.0302 -1.03677,-0.0259 -2.11731,0.12291 -3.95334,0.92494 -5.5081,2.40607 -1.5548,1.48118 -2.54307,2.90413 -2.96482,4.26884 h -0.10348 l 1.06757,-6.05399 h -6.15748 z"
           id="path1146" />
        <path
           d="m 537.12097,482.53897 h 6.93363 l 2.28115,-12.93588 h 0.10349 l 6.61874,12.93588 h 8.7964 l -8.5761,-14.74691 12.03342,-11.90101 h -8.17548 l -10.15863,10.65917 h -0.10349 l 4.02394,-22.8189 h -6.93363 z"
           id="path1148" />
      </g>
      <g
         style="font-style:oblique;font-variant:normal;font-weight:normal;font-stretch:normal;font-size:51.7442px;line-height:80%;font-family:'Frutiger LT 65 Bold';-inkscape-font-specification:'Frutiger LT 65 Bold, Oblique';letter-spacing:0px;word-spacing:0px;fill:#ffa500;fill-opacity:1;stroke:#000000;stroke-width:0;stroke-miterlimit:4;stroke-opacity:1"
         id="g1164"
         transform="translate(-656.46618,-241.7264)">
        <path
           d="m 372.89681,441.33359 h 9.88302 c 5.68805,0.14337 10.76243,-1.07476 15.22316,-3.65439 4.46068,-2.57963 7.39867,-7.38099 8.81397,-14.40411 0.78259,-4.73515 0.45039,-8.41916 -0.99661,-11.05203 -1.44707,-2.63282 -3.64969,-4.4694 -6.60787,-5.50973 -2.95824,-1.04027 -6.3128,-1.53918 -10.06369,-1.49673 h -9.88301 z m 12.60936,-30.4252 h 4.03599 c 3.14029,0.0237 5.69045,1.10173 7.65047,3.23397 1.95996,2.13229 2.64989,5.17653 2.06977,9.13273 -0.81518,3.95624 -2.57876,7.00048 -5.29075,9.13274 -2.71204,2.13227 -5.64238,3.21026 -8.79104,3.23397 h -4.036 z"
           style="letter-spacing:-2.58721px"
           id="path1152" />
        <path
           d="m 407.70288,441.33359 h 9.88301 c 5.68805,0.14337 10.76243,-1.07476 15.22317,-3.65439 4.46068,-2.57963 7.39866,-7.38099 8.81396,-14.40411 0.78259,-4.73515 0.45039,-8.41916 -0.9966,-11.05203 -1.44707,-2.63282 -3.64969,-4.4694 -6.60787,-5.50973 -2.95825,-1.04027 -6.31281,-1.53918 -10.06369,-1.49673 h -9.88302 z m 12.60935,-30.4252 h 4.036 c 3.14029,0.0237 5.69044,1.10173 7.65046,3.23397 1.95997,2.13229 2.64989,5.17653 2.06977,9.13273 -0.81518,3.95624 -2.57876,7.00048 -5.29075,9.13274 -2.71203,2.13227 -5.64238,3.21026 -8.79104,3.23397 h -4.03599 z"
           style="letter-spacing:-2.58721px"
           id="path1154" />
        <path
           d="m 442.04325,441.33359 h 6.93363 l 1.72455,-9.77953 c 0.20139,-1.33957 0.53665,-2.84588 1.00577,-4.51894 0.46909,-1.67302 1.21401,-3.13334 2.23478,-4.38095 1.02074,-1.24758 2.45929,-1.90299 4.31566,-1.96625 0.63364,10e-4 1.21995,0.0507 1.75892,0.14876 0.53892,0.0981 0.95403,0.23825 1.24532,0.42041 l 1.23182,-6.98537 c -0.34582,-0.0992 -0.69522,-0.15952 -1.04821,-0.18111 -0.35304,-0.0215 -0.69863,-0.0302 -1.03678,-0.0259 -2.1173,0.12292 -3.95333,0.92494 -5.50809,2.40608 -1.5548,1.48118 -2.54307,2.90412 -2.96482,4.26884 h -0.10349 l 1.06758,-6.054 h -6.15748 z"
           style="letter-spacing:-2.58721px"
           id="path1156" />
        <path
           d="m 464.21287,422.03325 c 1.33417,-0.8904 2.7517,-1.59325 4.25259,-2.10855 1.50086,-0.51526 2.99607,-0.77829 4.48561,-0.78909 2.04359,-0.0291 3.4808,0.39133 4.31162,1.26125 0.83077,0.86996 1.05671,2.36405 0.6778,4.48228 h -3.82902 c -1.47293,-0.0161 -3.01432,0.0809 -4.62416,0.29106 -1.60987,0.21023 -3.14361,0.63064 -4.60121,1.26125 -1.45604,0.63387 -2.70905,1.56525 -3.75904,2.79415 -1.05,1.22892 -1.7619,2.83297 -2.13571,4.81215 -0.3556,2.54837 0.26367,4.50169 1.85781,5.85995 1.59414,1.35827 3.61412,2.04387 6.05997,2.05681 1.62477,-0.008 3.26034,-0.4064 4.90673,-1.19657 1.64635,-0.79017 3.02388,-1.92637 4.13258,-3.4086 h 0.10349 c -0.0584,0.4409 -0.13705,1.03379 -0.23605,1.77868 -0.099,0.74489 -0.15106,1.48008 -0.15609,2.20557 h 6.10574 c 0.10352,-1.02733 0.21487,-2.02554 0.33405,-2.99466 0.11912,-0.96911 0.25406,-1.95439 0.40482,-2.95585 0.14411,-0.97018 0.3006,-1.99212 0.46948,-3.06581 0.16883,-1.07366 0.37019,-2.2767 0.6041,-3.60911 l 0.60223,-3.41507 c 0.71836,-3.90877 0.32269,-6.76329 -1.18702,-8.56356 -1.50976,-1.80021 -4.28309,-2.68848 -8.32001,-2.66479 -1.50927,0.007 -3.11723,0.1876 -4.82388,0.54331 -1.70668,0.35576 -3.3047,0.84733 -4.79408,1.47469 z m 1.47465,11.59055 c 0.4764,-1.98026 1.59874,-3.25875 3.36703,-3.83549 1.76825,-0.57671 3.48654,-0.83327 5.15485,-0.76968 h 3.00112 c -0.17268,1.04027 -0.4456,2.02555 -0.81877,2.95585 -0.3732,0.93031 -0.90562,1.7733 -1.59725,2.52896 -0.67475,0.73304 -1.45793,1.31084 -2.34955,1.73341 -0.89165,0.42258 -1.86967,0.63817 -2.93408,0.64679 -1.27102,0.006 -2.26889,-0.25224 -2.99361,-0.77615 -0.72474,-0.5239 -1.00132,-1.35179 -0.82974,-2.48369 z"
           style="letter-spacing:-2.58721px"
           id="path1158" />
        <path
           d="m 508.18484,414.94438 c -0.89289,-0.28564 -1.86565,-0.50339 -2.91827,-0.65326 -1.05266,-0.14981 -2.27042,-0.22527 -3.65327,-0.22638 -4.19808,0.0938 -7.62287,1.43268 -10.27438,4.0166 -2.65154,2.58396 -4.33354,5.85027 -5.04603,9.79893 -0.72908,4.14057 -0.22441,7.50174 1.51403,10.08352 1.73843,2.58179 4.7874,3.91203 9.14694,3.99072 1.40746,0.002 2.67872,-0.0668 3.81378,-0.20697 1.13502,-0.14014 2.22668,-0.36437 3.27498,-0.67267 l 0.70236,-5.74353 c -0.66891,0.27812 -1.50806,0.54978 -2.51744,0.81496 -1.00943,0.26519 -2.01981,0.40748 -3.03113,0.42688 -2.41796,-0.055 -4.07753,-0.88933 -4.97874,-2.50309 -0.90122,-1.61374 -1.12812,-3.67702 -0.68068,-6.18982 0.47398,-2.54728 1.46851,-4.58037 2.9836,-6.09927 1.51507,-1.51887 3.36201,-2.29718 5.54083,-2.33493 1.04575,0.005 1.92414,0.0981 2.63515,0.27812 0.71096,0.18005 1.34435,0.41505 1.90014,0.70501 z"
           style="letter-spacing:-2.58721px"
           id="path1160" />
        <path
           d="m 513.70812,425.39658 c 0.47128,-1.82287 1.31395,-3.31265 2.52801,-4.46935 1.21404,-1.15666 2.79188,-1.75387 4.73355,-1.79162 1.91094,0.0507 3.2003,0.67377 3.86806,1.86924 0.66773,1.19551 0.89036,2.65941 0.66791,4.39173 z m 14.90326,8.7964 c -1.42192,0.74597 -2.91061,1.37552 -4.46606,1.88864 -1.5555,0.51313 -3.17435,0.78047 -4.85656,0.80202 -2.17439,-0.0119 -3.8371,-0.59612 -4.98815,-1.75281 -1.15107,-1.15668 -1.62839,-2.81462 -1.43195,-4.97385 h 18.4207 c 0.92624,-4.74529 0.72702,-8.59156 -0.59767,-11.53881 -1.32475,-2.9472 -4.40533,-4.46501 -9.24175,-4.55343 -4.15578,0.1046 -7.49547,1.48658 -10.01908,4.14595 -2.52362,2.65943 -4.13346,5.96885 -4.82952,9.9283 -0.74598,4.40144 -0.1245,7.7971 1.86445,10.187 1.98894,2.38991 5.19503,3.59941 9.6183,3.62852 1.85324,-0.001 3.55999,-0.18003 5.12026,-0.53684 1.56022,-0.35681 3.03104,-0.88503 4.41245,-1.58464 z"
           style="letter-spacing:-2.58721px"
           id="path1162" />
      </g>
      <g
         style="font-style:oblique;font-variant:normal;font-weight:normal;font-stretch:normal;font-size:51.7442px;line-height:80%;font-family:'Frutiger LT 65 Bold';-inkscape-font-specification:'Frutiger LT 65 Bold, Oblique';letter-spacing:-2.58721px;word-spacing:0px;fill:#6ac1ff;fill-opacity:1;stroke:#000000;stroke-width:0;stroke-miterlimit:4;stroke-opacity:1"
         id="g1180"
         transform="translate(-658.87858,-241.7264)">
        <path
           d="m 368.16295,481.98972 h 6.93363 l 4.76304,-27.01013 h 0.10348 l 9.05249,27.01013 h 8.84815 l 6.36896,-36.11699 h -6.93363 l -4.76304,27.01012 h -0.10349 l -9.00074,-27.01012 h -8.89989 z"
           id="path1166" />
        <path
           d="m 410.4363,466.05271 c 0.47128,-1.82287 1.31395,-3.31265 2.52801,-4.46935 1.21404,-1.15667 2.79188,-1.75387 4.73355,-1.79162 1.91094,0.0507 3.2003,0.67376 3.86806,1.86923 0.66773,1.19551 0.89036,2.65942 0.66791,4.39174 z m 14.90326,8.7964 c -1.42192,0.74597 -2.91061,1.37552 -4.46606,1.88864 -1.5555,0.51312 -3.17435,0.78047 -4.85656,0.80202 -2.17439,-0.0118 -3.8371,-0.59612 -4.98815,-1.75281 -1.15107,-1.15668 -1.62839,-2.81462 -1.43195,-4.97385 h 18.4207 c 0.92624,-4.7453 0.72702,-8.59156 -0.59767,-11.53881 -1.32475,-2.9472 -4.40533,-4.46501 -9.24175,-4.55343 -4.15578,0.10459 -7.49547,1.48658 -10.01908,4.14595 -2.52362,2.65942 -4.13346,5.96885 -4.82952,9.92829 -0.74598,4.40145 -0.1245,7.79711 1.86445,10.18701 1.98894,2.38991 5.19503,3.59941 9.6183,3.62852 1.85324,-10e-4 3.55999,-0.18003 5.12026,-0.53684 1.56022,-0.35682 3.03104,-0.88503 4.41245,-1.58465 z"
           id="path1168" />
        <path
           d="m 432.61703,473.96947 c -0.45882,2.66911 -0.10257,4.76903 1.06878,6.29977 1.17133,1.53075 3.11853,2.31121 5.84161,2.3414 1.02839,0 1.9689,-0.0517 2.82153,-0.15523 0.85259,-0.10349 1.65612,-0.25872 2.41058,-0.46569 l 0.76023,-5.48482 c -0.4121,0.23393 -0.90503,0.41287 -1.47881,0.53684 -0.57381,0.12397 -1.17557,0.1865 -1.80529,0.18757 -1.28315,-0.041 -2.07724,-0.4894 -2.38228,-1.34533 -0.30507,-0.85592 -0.33906,-1.87354 -0.10197,-3.05287 l 2.1899,-12.41845 h 6.15748 l 0.89421,-5.07087 h -6.15748 l 1.33219,-7.55455 -7.32599,2.22497 -0.93983,5.32958 h -5.12261 l -0.89421,5.07087 h 5.12261 z"
           id="path1170" />
        <path
           d="m 452.45257,481.98972 h 7.91676 l 9.27775,-20.33522 h 0.10349 l 2.20931,20.33522 h 8.17548 L 493.01,455.34179 h -6.62317 l -9.01303,19.71429 h -0.10348 l -2.31881,-19.71429 h -8.07199 l -8.8578,19.71429 h -0.10349 l -2.42229,-19.71429 h -7.34758 z"
           id="path1172" />
        <path
           d="m 490.45683,468.84686 c -0.66176,3.92389 -0.0148,7.17511 1.94087,9.75365 1.95567,2.57856 5.13934,3.91526 9.551,4.01013 4.46989,-0.0949 8.14008,-1.43157 11.01059,-4.01013 2.87046,-2.57854 4.66623,-5.82976 5.38731,-9.75365 0.69508,-4.437 -0.0347,-7.89087 -2.18939,-10.36165 -2.15474,-2.47073 -5.25152,-3.72551 -9.29035,-3.76434 -4.02776,0.0388 -7.552,1.29362 -10.5727,3.76434 -3.02073,2.47078 -4.9665,5.92466 -5.83733,10.36165 z m 7.39009,-0.8279 c 0.36231,-2.07296 1.23259,-3.89045 2.61083,-5.45248 1.37822,-1.56198 3.19827,-2.38341 5.46015,-2.46428 2.25927,0.0744 3.80698,0.88289 4.64315,2.42548 0.83613,1.54262 1.06528,3.37305 0.68745,5.49128 -0.35819,2.33063 -1.18189,4.42193 -2.47109,6.2739 -1.28925,1.852 -3.24917,2.83081 -5.87975,2.93645 -2.56799,-0.10887 -4.16646,-1.09416 -4.7954,-2.95585 -0.62898,-1.86168 -0.71409,-3.94651 -0.25534,-6.2545 z"
           id="path1174" />
        <path
           d="m 519.04743,481.98972 h 6.93364 l 1.72455,-9.77953 c 0.20139,-1.33958 0.53665,-2.84589 1.00577,-4.51894 0.46909,-1.67302 1.21401,-3.13334 2.23478,-4.38095 1.02073,-1.24758 2.45928,-1.90299 4.31566,-1.96626 0.63364,10e-4 1.21995,0.0507 1.75891,0.14877 0.53893,0.0981 0.95403,0.23825 1.24533,0.42041 l 1.23182,-6.98538 c -0.34582,-0.0991 -0.69522,-0.15951 -1.04821,-0.1811 -0.35304,-0.0215 -0.69863,-0.0302 -1.03678,-0.0259 -2.1173,0.12292 -3.95333,0.92494 -5.5081,2.40607 -1.55479,1.48119 -2.54306,2.90413 -2.96481,4.26885 h -0.10349 l 1.06758,-6.054 h -6.15748 z"
           id="path1176" />
        <path
           d="m 536.57174,481.98972 h 6.93364 l 2.28114,-12.93589 h 0.10349 l 6.61874,12.93589 h 8.7964 l -8.57609,-14.74691 12.03341,-11.90102 h -8.17548 l -10.15863,10.65917 h -0.10349 l 4.02395,-22.8189 h -6.93364 z"
           id="path1178" />
      </g>
      <path
         id="path1182"
         d="m -275.28308,181.39932 c -1.8144,0.0443 -3.5481,0.28161 -5.1703,0.63111 l -3.107,17.57408 h 9.8793 c 5.6881,0.1433 10.7588,-1.0614 15.2195,-3.6411 2.1518,-1.2443 3.9457,-3.0133 5.3888,-5.2916 -2.2012,-0.79349 -3.7787,-2.35979 -5.9956,-4.02941 -0.8939,1.58329 -2.0249,2.93054 -3.4226,4.02941 -2.712,2.1323 -5.6383,3.2289 -8.787,3.2526 h -4.0536 l 2.2088,-12.47654 c -0.731,-0.0435 -1.4526,-0.0658 -2.1603,-0.0485 z m 63.985,0.48547 -3.1313,17.71972 h 6.9422 l 1.7235,-9.78227 c 0.2014,-1.33958 0.5261,-2.84182 0.9952,-4.51488 0.2568,-0.9158 0.6217,-1.76039 1.0437,-2.54872 -2.5833,-0.58801 -5.1001,-0.84902 -7.5733,-0.87385 z m -3.641,0.14564 c -2.6456,0.22407 -5.2805,0.70341 -7.9375,1.35932 -0.9402,3.07184 -2.5313,5.49353 -4.8061,7.28206 -2.7121,2.1323 -5.6384,3.2289 -8.787,3.2527 h -4.0537 l 0.8981,-5.12176 c -0.6293,0.22038 -1.2278,0.43425 -1.8691,0.65538 -2.269,0.78242 -4.1349,1.27082 -5.7285,1.52928 l -1.5292,8.6171 h 9.8793 c 5.688,0.1433 10.7587,-1.0614 15.2195,-3.6411 4.356,-2.5191 7.2623,-7.17631 8.7142,-13.93298 z m 90.2975,0.12137 c -4.7787,1.22305 -10.5726,3.39383 -17.7925,6.28684 h 17.2585 c 0.4498,-2.3046 0.615,-4.40633 0.534,-6.28684 z m -69.4709,4.15077 c -0.4336,0.36711 -0.8575,0.74422 -1.2379,1.18941 -1.05,1.22892 -1.7623,2.85125 -2.1361,4.83043 -0.3556,2.5484 0.275,4.4917 1.8691,5.8499 1.5941,1.3583 3.6225,2.0503 6.0684,2.0633 1.6247,-0.01 3.2568,-0.4235 4.9032,-1.2137 1.6464,-0.7902 3.0178,-1.9161 4.1265,-3.3983 h 0.097 c -0.058,0.4409 -0.1195,1.0271 -0.2184,1.772 -0.099,0.7449 -0.1649,1.4834 -0.17,2.2089 h 6.117 c 0.1035,-1.0274 0.1964,-2.0166 0.3155,-2.9857 0.025,-0.2069 0.07,-0.4227 0.097,-0.6311 -2.8183,-0.5759 -5.3143,-1.6115 -7.7432,-2.8643 -0.5914,0.5659 -1.2492,1.0323 -1.9905,1.3836 -0.8916,0.4226 -1.8726,0.6468 -2.937,0.6554 -1.2711,0.01 -2.261,-0.2528 -2.9857,-0.7768 -0.7247,-0.5238 -1.0211,-1.3682 -0.8496,-2.5001 0.2946,-1.22432 0.838,-2.17648 1.6264,-2.8643 -1.5725,-0.92944 -3.2043,-1.8439 -4.9518,-2.71864 z m 50.489,2.62155 c -1.9986,0.80553 -4.1958,1.68269 -6.4325,2.59729 0.2457,2.0133 0.9306,3.7121 2.0632,5.0731 1.989,2.3899 5.1891,3.612 9.6124,3.6411 1.8532,-8e-4 3.5614,-0.1772 5.1217,-0.534 1.5602,-0.3569 3.0363,-0.9025 4.4178,-1.6021 l 0.9952,-5.6315 c -1.422,0.746 -2.9109,1.3803 -4.4664,1.8934 -1.5554,0.5131 -3.1725,0.7794 -4.8547,0.801 -2.1743,-0.012 -3.8493,-0.591 -5.0003,-1.7477 -1.0612,-1.0664 -1.5405,-2.5721 -1.4564,-4.49059 z m -8.1074,4.68479 c -0.6689,0.2781 -1.4908,0.5358 -2.5001,0.801 -1.0095,0.2652 -2.0229,0.4176 -3.0342,0.4369 -0.4667,-0.011 -0.9006,-0.053 -1.3108,-0.1213 -3.7534,1.1459 -7.0079,1.6692 -9.9036,1.7477 1.7634,2.4253 4.7336,3.6861 8.9569,3.7624 1.4075,0 2.7002,-0.078 3.8352,-0.2185 1.1351,-0.1401 2.2044,-0.3713 3.2527,-0.6796 z"
         style="color:#000000;display:inline;overflow:visible;visibility:visible;opacity:0.3;fill:#d40000;fill-opacity:1;fill-rule:nonzero;stroke:none;stroke-width:1px;marker:none;enable-background:accumulate" />
      <path
         id="path1184"
         d="m -118.99518,221.57201 -3.3012,18.6906 h 6.9179 l 2.2818,-12.9378 h 0.097 l 6.6267,12.9378 h 8.811301 l -8.325801,-14.3214 c -2.0274,-1.2271 -3.8936,-2.2152 -5.413,-2.8642 l -1.1409,1.1894 h -0.1213 l 0.2913,-1.6021 c -2.1191,-0.7698 -4.3151,-1.1206 -6.7238,-1.0923 z m -156.9526,0.4855 6.0926,18.2051 h 8.8356 l 1.9662,-11.093 c -1.6588,-1.2969 -3.4565,-2.8725 -6.1898,-4.2721 l -1.0923,6.2625 h -0.1214 l -2.6215,-7.8403 c -0.3837,-0.1243 -0.7758,-0.2483 -1.1894,-0.3641 -1.9481,-0.5455 -3.847,-0.819 -5.68,-0.8981 z m -4.6848,0.2184 c -2.6828,0.3607 -5.1365,1.0869 -7.2335,1.9176 l -2.84,16.0691 h 6.9179 z m 62.9898,0.4127 c -2.3873,0.219 -4.7652,0.6411 -7.1607,1.2137 l -1.4564,8.35 c -0.4588,2.6692 -0.1033,4.7561 1.068,6.2869 1.1713,1.5307 3.1269,2.3243 5.8499,2.3545 1.0284,0 1.9631,-0.066 2.8158,-0.1699 0.8526,-0.1035 1.6486,-0.2542 2.4031,-0.4612 l 0.7524,-5.4858 c -0.4121,0.2339 -0.8826,0.41 -1.4564,0.534 -0.5738,0.124 -1.1908,0.1931 -1.8205,0.1942 -1.2832,-0.041 -2.0738,-0.5034 -2.3788,-1.3593 -0.3051,-0.8559 -0.3342,-1.8549 -0.097,-3.0342 l 1.4807,-8.4229 z m 8.4229,0.1699 2.7915,17.4041 h 7.9131 l 5.2674,-11.5542 c -1.4208,-0.8096 -2.8854,-1.612 -4.4664,-2.3545 h -0.024 l -3.107,6.9665 h -0.1213 l -1.0681,-8.7142 c -2.4654,-0.8593 -4.8504,-1.4281 -7.1849,-1.7477 z m 80.1026,0.5097 c -2.4791,0.7229 -5.1937,1.659 -8.2287,2.7915 l -2.4759,14.1029 h 6.918 l 1.7234,-9.7822 c 0.2014,-1.3396 0.5503,-2.8418 1.0195,-4.5149 0.262,-0.9346 0.6095,-1.7954 1.0437,-2.5973 z m -101.2448,2.0876 c -3.424,1.0674 -6.9866,2.3325 -10.7047,3.641 h 10.1949 c 0.2494,-1.2778 0.4236,-2.4936 0.5098,-3.641 z m 89.7877,1.9418 c -2.5812,1.0027 -5.4321,2.1374 -8.4714,3.3741 -0.3103,0.6202 -0.6441,1.222 -1.0438,1.7962 -1.2892,1.852 -3.2679,2.8315 -5.8985,2.9371 -1.2449,-0.053 -2.2449,-0.312 -3.0342,-0.7768 -2.7672,0.9562 -5.2803,1.5873 -7.5733,1.9662 0.041,0.056 0.079,0.1141 0.1214,0.1699 1.9556,2.5786 5.1278,3.9346 9.5395,4.0294 4.4699,-0.095 8.1496,-1.4508 11.0202,-4.0294 2.8041,-2.5189 4.5872,-5.6639 5.3401,-9.4667 z m -115.2507,3.7867 c 0.1187,2.462 0.8201,4.4871 2.1361,6.0684 1.9889,2.3899 5.1891,3.6119 9.6123,3.641 1.8533,-8e-4 3.5615,-0.2015 5.1217,-0.5583 1.5603,-0.3568 3.0364,-0.8781 4.4178,-1.5777 l 0.9952,-5.6315 c -1.4219,0.746 -2.9108,1.3802 -4.4663,1.8933 -1.5555,0.5132 -3.1725,0.7795 -4.8547,0.8011 -2.1744,-0.012 -3.825,-0.6153 -4.9761,-1.772 -0.6664,-0.6696 -1.1202,-1.4946 -1.335,-2.5002 -2.9679,0.5474 -4.9853,0.3157 -6.651,-0.3641 z m 68.0145,0.7282 0.8981,8.3501 h 8.1801 l 1.772,-3.6896 c -4.0108,-0.8668 -7.4026,-2.6354 -10.8502,-4.6605 z"
         style="opacity:0.3;fill:#0044aa;stroke:none" />
    </g>
    <rect
       style="fill:#feffff;fill-opacity:1;stroke-width:2.11667;stroke-linecap:round;stroke-miterlimit:10;paint-order:stroke fill markers;stop-color:#000000"
       id="rect950"
       width="67.73333"
       height="67.73333"
       x="110.06662"
       y="118.53334"
       ry="4.2333341"
       rx="4.2333341" />
    <rect
       style="fill:#feffff;fill-opacity:1;stroke-width:2.11667;stroke-linecap:round;stroke-miterlimit:10;paint-order:stroke fill markers;stop-color:#000000"
       id="rect952"
       width="67.73333"
       height="67.73333"
       x="33.866699"
       y="118.53334"
       ry="4.2333341"
       rx="4.2333341" />
    <rect
       style="fill:#feffff;fill-opacity:1;stroke-width:2.11667;stroke-linecap:round;stroke-miterlimit:10;paint-order:stroke fill markers;stop-color:#000000"
       id="rect956"
       width="67.73333"
       height="67.73333"
       x="237.06639"
       y="118.53339"
       ry="4.2333341"
       rx="4.2333341" />
    <path
       id="path1260"
       style="color:#000000;font-style:normal;font-variant:normal;font-weight:normal;font-stretch:normal;font-size:medium;line-height:normal;font-family:sans-serif;font-variant-ligatures:normal;font-variant-position:normal;font-variant-caps:normal;font-variant-numeric:normal;font-variant-alternates:normal;font-variant-east-asian:normal;font-feature-settings:normal;font-variation-settings:normal;text-indent:0;text-align:start;text-decoration:none;text-decoration-line:none;text-decoration-style:solid;text-decoration-color:#000000;letter-spacing:normal;word-spacing:normal;text-transform:none;writing-mode:lr-tb;direction:ltr;text-orientation:mixed;dominant-baseline:auto;baseline-shift:baseline;text-anchor:start;white-space:normal;shape-padding:0;shape-margin:0;inline-size:0;clip-rule:nonzero;display:inline;overflow:visible;visibility:visible;opacity:1;isolation:auto;mix-blend-mode:normal;color-interpolation:sRGB;color-interpolation-filters:linearRGB;solid-color:#000000;solid-opacity:1;vector-effect:none;fill:#000000;fill-opacity:0.298039;fill-rule:nonzero;stroke:none;stroke-width:2.11746;stroke-linecap:butt;stroke-linejoin:miter;stroke-miterlimit:10;stroke-dasharray:none;stroke-dashoffset:0;stroke-opacity:1;paint-order:stroke fill markers;color-rendering:auto;image-rendering:auto;shape-rendering:auto;text-rendering:auto;enable-background:accumulate;stop-color:#000000;stop-opacity:1"
       d="m 212.44531,135.20256 a 1.0584392,1.0584392 0 0 0 -0.0181,5.2e-4 1.0584392,1.0584392 0 0 0 -1.02526,1.05678 v 7.40834 h -24.3422 a 1.0584392,1.0584392 0 0 0 -1.05833,1.05833 v 16.93385 a 1.0584392,1.0584392 0 0 0 1.05833,1.05833 h 24.3422 v 7.40834 a 1.0584392,1.0584392 0 0 0 1.8066,0.74827 l 16.93333,-16.93385 a 1.0584392,1.0584392 0 0 0 0,-1.49603 l -16.93333,-16.93385 a 1.0584392,1.0584392 0 0 0 -0.76325,-0.30903 z" />
    <path
       style="fill:#6ac1ff;fill-opacity:1;stroke:#000000;stroke-width:2.11667;stroke-linecap:round;stroke-linejoin:round;stroke-miterlimit:10;stroke-dasharray:none;stroke-opacity:1;paint-order:stroke fill markers;stop-color:#000000"
       d="m 186.26654,143.93329 v 16.93334 h 25.4 v 8.46666 l 16.93334,-16.93333 -16.93334,-16.93333 v 8.46666 z"
       id="path962" />
    <path
       id="rect964"
       style="fill:#4a9be6;fill-opacity:1;stroke:none;stroke-width:2.11667;stroke-linecap:round;stroke-linejoin:round;stroke-miterlimit:10;stroke-dasharray:none;stroke-opacity:1;paint-order:stroke fill markers;stop-color:#000000"
       d="m 186.26654,152.39996 v 8.46667 h 25.4 v 8.46666 l 16.93333,-16.93333 z" />
  </g>
</svg>
